<svg id="visual" viewBox="0 0 900 600" width="900" height="600" xmlns="http://www.w3.org/2000/svg" xmlns:xlink="http://www.w3.org/1999/xlink" version="1.1"><rect x="0" y="0" width="900" height="600" fill="#C8A84E"></rect><path d="M0 355L12.5 353.7C25 352.3 50 349.7 75 362.5C100 375.3 125 403.7 150 415.5C175 427.3 200 422.7 225 416.3C250 410 275 402 300 393.2C325 384.3 350 374.7 375 381.3C400 388 425 411 450 424.3C475 437.7 500 441.3 525 431.3C550 421.3 575 397.7 600 388.3C625 379 650 384 675 380.3C700 376.7 725 364.3 750 368.2C775 372 800 392 825 406.7C850 421.3 875 430.7 887.5 435.3L900 440L900 601L887.5 601C875 601 850 601 825 601C800 601 775 601 750 601C725 601 700 601 675 601C650 601 625 601 600 601C575 601 550 601 525 601C500 601 475 601 450 601C425 601 400 601 375 601C350 601 325 601 300 601C275 601 250 601 225 601C200 601 175 601 150 601C125 601 100 601 75 601C50 601 25 601 12.5 601L0 601Z" fill="#f3120f"></path><path d="M0 402L12.5 408.2C25 414.3 50 426.7 75 424.5C100 422.3 125 405.7 150 407C175 408.3 200 427.7 225 438.2C250 448.7 275 450.3 300 454.5C325 458.7 350 465.3 375 458.2C400 451 425 430 450 433.2C475 436.3 500 463.7 525 466.7C550 469.7 575 448.3 600 445.5C625 442.7 650 458.3 675 466C700 473.7 725 473.3 750 465C775 456.7 800 440.3 825 440C850 439.7 875 455.3 887.5 463.2L900 471L900 601L887.5 601C875 601 850 601 825 601C800 601 775 601 750 601C725 601 700 601 675 601C650 601 625 601 600 601C575 601 550 601 525 601C500 601 475 601 450 601C425 601 400 601 375 601C350 601 325 601 300 601C275 601 250 601 225 601C200 601 175 601 150 601C125 601 100 601 75 601C50 601 25 601 12.5 601L0 601Z" fill="#f44205"></path><path d="M0 453L12.5 449.5C25 446 50 439 75 441C100 443 125 454 150 464.8C175 475.7 200 486.3 225 490.2C250 494 275 491 300 490.2C325 489.3 350 490.7 375 483.8C400 477 425 462 450 456.3C475 450.7 500 454.3 525 461.2C550 468 575 478 600 478.7C625 479.3 650 470.7 675 463.2C700 455.7 725 449.3 750 448.7C775 448 800 453 825 450.5C850 448 875 438 887.5 433L900 428L900 601L887.5 601C875 601 850 601 825 601C800 601 775 601 750 601C725 601 700 601 675 601C650 601 625 601 600 601C575 601 550 601 525 601C500 601 475 601 450 601C425 601 400 601 375 601C350 601 325 601 300 601C275 601 250 601 225 601C200 601 175 601 150 601C125 601 100 601 75 601C50 601 25 601 12.5 601L0 601Z" fill="#f35d00"></path><path d="M0 520L12.5 512.3C25 504.7 50 489.3 75 486.7C100 484 125 494 150 502.7C175 511.3 200 518.7 225 522.2C250 525.7 275 525.3 300 516C325 506.7 350 488.3 375 485.2C400 482 425 494 450 501.3C475 508.7 500 511.3 525 507.8C550 504.3 575 494.7 600 487.5C625 480.3 650 475.7 675 483.5C700 491.3 725 511.7 750 522C775 532.3 800 532.7 825 520.7C850 508.7 875 484.3 887.5 472.2L900 460L900 601L887.5 601C875 601 850 601 825 601C800 601 775 601 750 601C725 601 700 601 675 601C650 601 625 601 600 601C575 601 550 601 525 601C500 601 475 601 450 601C425 601 400 601 375 601C350 601 325 601 300 601C275 601 250 601 225 601C200 601 175 601 150 601C125 601 100 601 75 601C50 601 25 601 12.5 601L0 601Z" fill="#f37402"></path><path d="M0 500L12.5 507.5C25 515 50 530 75 535.3C100 540.7 125 536.3 150 537.5C175 538.7 200 545.3 225 542.2C250 539 275 526 300 525.2C325 524.3 350 535.7 375 537.7C400 539.7 425 532.3 450 528.3C475 524.3 500 523.7 525 519.5C550 515.3 575 507.7 600 505.8C625 504 650 508 675 509.2C700 510.3 725 508.7 750 510.8C775 513 800 519 825 525.8C850 532.7 875 540.3 887.5 544.2L900 548L900 601L887.5 601C875 601 850 601 825 601C800 601 775 601 750 601C725 601 700 601 675 601C650 601 625 601 600 601C575 601 550 601 525 601C500 601 475 601 450 601C425 601 400 601 375 601C350 601 325 601 300 601C275 601 250 601 225 601C200 601 175 601 150 601C125 601 100 601 75 601C50 601 25 601 12.5 601L0 601Z" fill="#f28710"></path><path d="M0 547L12.5 552.5C25 558 50 569 75 574.7C100 580.3 125 580.7 150 581C175 581.3 200 581.7 225 575.2C250 568.7 275 555.3 300 547.5C325 539.7 350 537.3 375 535.7C400 534 425 533 450 537.5C475 542 500 552 525 554C550 556 575 550 600 545C625 540 650 536 675 541.5C700 547 725 562 750 566C775 570 800 563 825 563.2C850 563.3 875 570.7 887.5 574.3L900 578L900 601L887.5 601C875 601 850 601 825 601C800 601 775 601 750 601C725 601 700 601 675 601C650 601 625 601 600 601C575 601 550 601 525 601C500 601 475 601 450 601C425 601 400 601 375 601C350 601 325 601 300 601C275 601 250 601 225 601C200 601 175 601 150 601C125 601 100 601 75 601C50 601 25 601 12.5 601L0 601Z" fill="#f19920"></path></svg>